<svg width="19" height="21" viewBox="0 0 19 21" fill="none" xmlns="http://www.w3.org/2000/svg">
<path d="M14 0C14.8284 0 15.5 0.671573 15.5 1.5V3H18.8C18.9105 3 19 3.08954 19 3.2V4.3C19 4.41046 18.9105 4.5 18.8 4.5H18V18C18 19.6569 16.6569 21 15 21H4C2.34315 21 1 19.6569 1 18V4.5H0.2C0.0895431 4.5 0 4.41046 0 4.3V3.2C0 3.08954 0.0895431 3 0.2 3H3.5V1.5C3.5 0.671573 4.17157 0 5 0H14ZM16.5 4.5H2.5V18C2.5 18.7988 3.12446 19.4518 3.91186 19.4975L4 19.5H15C15.7988 19.5 16.4518 18.8755 16.4975 18.0881L16.5 18V4.5ZM7.3 7.5C7.41046 7.5 7.5 7.58954 7.5 7.7V16.3C7.5 16.4105 7.41046 16.5 7.3 16.5H6.2C6.08954 16.5 6 16.4105 6 16.3V7.7C6 7.58954 6.08954 7.5 6.2 7.5H7.3ZM13.3 7.5C13.4105 7.5 13.5 7.58954 13.5 7.7V16.3C13.5 16.4105 13.4105 16.5 13.3 16.5H12.2C12.0895 16.5 12 16.4105 12 16.3V7.7C12 7.58954 12.0895 7.5 12.2 7.5H13.3ZM14 1.5H5V3H14V1.5Z" fill="black"/>
</svg>
