<svg width="19" height="16" viewBox="0 0 19 16" fill="none" xmlns="http://www.w3.org/2000/svg">
<path d="M2.36655 0.0582969L9.36813 6.90928L16.3693 0.0583012C16.408 0.0203665 16.4608 -0.000976562 16.5159 -0.000976562H18.103C18.217 -0.000976562 18.3094 0.0885665 18.3094 0.199023C18.3094 0.251726 18.2879 0.302298 18.2496 0.339747L10.452 7.96993L18.3084 15.6583C18.3886 15.7368 18.388 15.8634 18.307 15.9411C18.2683 15.9782 18.2161 15.999 18.1618 15.999H16.5752C16.5201 15.999 16.4673 15.9777 16.4285 15.9397L9.36813 9.03059L2.30728 15.9397C2.26852 15.9777 2.21571 15.999 2.16061 15.999H0.574574C0.460577 15.999 0.368164 15.9095 0.368164 15.799C0.368164 15.7463 0.38963 15.6958 0.427897 15.6583L8.28423 7.96993L0.486693 0.339747C0.406483 0.261258 0.407126 0.134627 0.48813 0.0569074C0.526779 0.0198254 0.578972 -0.000976562 0.633363 -0.000976562H2.21988C2.27498 -0.000976562 2.32779 0.0203649 2.36655 0.0582969Z" fill="#0C0A00"/>
</svg>
