<svg width="22" height="18" viewBox="0 0 22 18" fill="none" xmlns="http://www.w3.org/2000/svg">
<path d="M10.7909 0.729492C12.8001 0.729492 14.6394 1.46805 16.0598 2.69237L16.2384 2.84851L16.4361 3.02593L16.6476 3.21998L16.9907 3.54226L17.3648 3.90198L17.7699 4.29914L18.0571 4.58471L18.6731 5.20578L19.1712 5.71525L19.8836 6.45279L20.6511 7.25689L21.0555 7.6839C21.7335 8.40153 21.7581 9.49104 21.129 10.2356L21.0564 10.3169L20.2651 11.1513L19.7031 11.7381L19.002 12.4619L18.5123 12.9609L17.9075 13.5676L17.6257 13.8459L17.2288 14.232L16.8628 14.5805L16.5278 14.8914L16.3217 15.0777L16.1293 15.2474C16.0983 15.2742 16.068 15.3004 16.0382 15.3259C14.6208 16.5391 12.7899 17.2702 10.7909 17.2702C8.77986 17.2702 6.93906 16.5303 5.51813 15.3041L5.33983 15.148L5.1424 14.9706L4.82042 14.6735L4.46744 14.339L4.08347 13.9671L3.6685 13.5578L3.067 12.9539L2.41039 12.2836L1.69868 11.5468L0.731558 10.5324C0.664213 10.4613 0.596294 10.3895 0.527801 10.3171C-0.150816 9.59901 -0.175035 8.50859 0.455131 7.76396L0.527843 7.68268L1.50564 6.65438L1.95535 6.18625L2.5914 5.53048L2.98976 5.12425L3.36757 4.74279L3.82316 4.28874L4.28143 3.84009L4.56449 3.56806L4.95542 3.20061L5.19358 2.98271L5.41379 2.78646C5.44899 2.75556 5.48345 2.72556 5.51715 2.69646C6.93822 1.4697 8.7794 0.729492 10.7909 0.729492ZM10.7909 2.18897C9.20383 2.18897 7.7042 2.75957 6.51267 3.78818L6.24955 4.02033L6.05255 4.19959L5.73034 4.50025L5.25111 4.96034L4.85462 5.34967L4.42649 5.77682L3.96686 6.2417L3.47584 6.7442L2.95355 7.28422L2.20874 8.06245L1.63196 8.67059C1.45602 8.85675 1.45601 9.14302 1.63195 9.32919L2.39199 10.1296L3.2973 11.0716L3.79892 11.5869L4.41903 12.2155L4.84743 12.6431L5.11549 12.9071L5.4912 13.2716L5.72403 13.4936L6.04672 13.7948L6.33746 14.058L6.51347 14.2122C7.70488 15.2404 9.20419 15.8107 10.7909 15.8107C12.3682 15.8107 13.8592 15.2472 15.0475 14.2301L15.2186 14.0813L15.4098 13.9105L15.6152 13.7226L15.8348 13.5176L16.0687 13.2955L16.3167 13.0564L16.7153 12.6659L17.2959 12.0858L17.7681 11.6064L18.2717 11.0891L18.9917 10.3406L19.3725 9.94124L19.9514 9.3299C20.1271 9.14373 20.127 8.85769 19.9512 8.67164L19.0085 7.67976L18.1182 6.75603L17.4686 6.09227L17.0181 5.63848L16.5992 5.22255L16.2119 4.84456L15.9714 4.6137L15.7451 4.39978L15.4323 4.11071L15.2416 3.93925L15.0652 3.78483C13.8742 2.75829 12.3762 2.18897 10.7909 2.18897ZM10.7916 4.50053C13.2097 4.50053 15.17 6.51525 15.17 9.00053C15.17 11.4858 13.2097 13.5005 10.7916 13.5005C8.37342 13.5005 6.41314 11.4858 6.41314 9.00053C6.41314 6.51525 8.37342 4.50053 10.7916 4.50053ZM10.8399 5.99985V7.79988L10.8369 7.88988C10.7918 8.48885 10.3123 8.95772 9.72118 8.99718L9.6399 8.99987H7.83995L7.84295 9.13007C7.91264 10.7348 9.23397 11.9999 10.8402 11.9999C12.497 11.9997 13.84 10.6565 13.84 8.99969C13.8398 7.34282 12.4967 5.99976 10.8399 5.99985Z" fill="#616161"/>
</svg>
