<svg width="24" height="24" viewBox="0 0 24 24" fill="none" xmlns="http://www.w3.org/2000/svg">
<path d="M21.9997 7.64836L22 9.25002C22 9.30717 21.9756 9.3616 21.9328 9.39956C20.9488 10.2739 20.1736 10.8902 19.6073 11.2484L21.5346 13.4883C21.6066 13.572 21.5972 13.6983 21.5134 13.7704C21.5122 13.7714 21.5109 13.7725 21.5096 13.7735L20.6703 14.4605C20.5863 14.5292 20.4628 14.5184 20.392 14.4361L18.2859 11.9878C17.2205 12.5108 16.0774 12.905 14.8778 13.1495L15.9076 15.909C15.9462 16.0124 15.8936 16.1276 15.7901 16.1663C15.7891 16.1666 15.7881 16.167 15.7871 16.1674L14.7546 16.5339C14.6517 16.5704 14.5385 16.5176 14.5003 16.4153L13.3653 13.3741C12.9161 13.4165 12.4606 13.4382 12 13.4382C11.4238 13.4382 10.8557 13.4043 10.2977 13.3383L9.14945 16.4153C9.11127 16.5176 8.99808 16.5704 8.89517 16.5339L7.86268 16.1674C7.75859 16.1304 7.70416 16.0161 7.74111 15.912C7.74147 15.911 7.74184 15.91 7.74222 15.909L8.79823 13.0795C7.71655 12.8327 6.68313 12.4635 5.71414 11.9878L3.608 14.4361C3.53722 14.5184 3.41372 14.5292 3.32972 14.4605L2.49035 13.7735C2.40487 13.7036 2.39229 13.5776 2.46224 13.4921C2.46328 13.4908 2.46434 13.4896 2.46541 13.4883L4.39269 11.2484C3.82635 10.8902 3.05115 10.2739 2.0671 9.3995C2.02443 9.36152 2 9.30712 2 9.24999V7.66161C2 7.55115 2.08954 7.46161 2.2 7.46161C2.26011 7.46161 2.31704 7.48865 2.35502 7.53524L2.41103 7.60396L2.50897 7.71776C4.80141 10.3241 8.20299 11.9753 12 11.9753C15.8045 11.9753 19.212 10.3176 21.5045 7.70237L21.6545 7.52607C21.722 7.4427 21.8444 7.42989 21.9278 7.49745C21.9733 7.53434 21.9997 7.58978 21.9997 7.64836Z" fill="#616161"/>
</svg>
