<svg width="187" height="75" viewBox="0 0 187 75" fill="none" xmlns="http://www.w3.org/2000/svg">
<path d="M48.1304 56C50.0183 56 52.4936 27.3333 54.0669 18H73.855L74 56H48.1304Z" fill="#FAF353"/>
<path d="M64 18V55" stroke="#0C0A00" stroke-width="0.5"/>
<path d="M55 36H73" stroke="#0C0A00" stroke-width="0.5"/>
<path d="M21.2812 44.125H10.1875L10.125 39.5H19.1875C20.9792 39.5 22.4688 39.3229 23.6562 38.9688C24.8646 38.6146 25.7708 38.0833 26.375 37.375C26.9792 36.6667 27.2812 35.7917 27.2812 34.75C27.2812 33.9375 27.1042 33.2292 26.75 32.625C26.4167 32 25.9062 31.4896 25.2188 31.0938C24.5312 30.6771 23.6771 30.375 22.6562 30.1875C21.6562 29.9792 20.4792 29.875 19.125 29.875H11.7188V59H5.9375V25.1875H19.125C21.2708 25.1875 23.1979 25.375 24.9062 25.75C26.6354 26.125 28.1042 26.6979 29.3125 27.4688C30.5417 28.2188 31.4792 29.1771 32.125 30.3438C32.7708 31.5104 33.0938 32.8854 33.0938 34.4688C33.0938 35.4896 32.8854 36.4583 32.4688 37.375C32.0521 38.2917 31.4375 39.1042 30.625 39.8125C29.8125 40.5208 28.8125 41.1042 27.625 41.5625C26.4375 42 25.0729 42.2812 23.5312 42.4062L21.2812 44.125ZM21.2812 59H8.09375L10.9688 54.3125H21.2812C22.8854 54.3125 24.2188 54.1146 25.2812 53.7188C26.3438 53.3021 27.1354 52.7188 27.6562 51.9688C28.1979 51.1979 28.4688 50.2812 28.4688 49.2188C28.4688 48.1562 28.1979 47.25 27.6562 46.5C27.1354 45.7292 26.3438 45.1458 25.2812 44.75C24.2188 44.3333 22.8854 44.125 21.2812 44.125H12.5L12.5625 39.5H23.5312L25.625 41.25C27.4792 41.3958 29.0521 41.8542 30.3438 42.625C31.6354 43.3958 32.6146 44.375 33.2812 45.5625C33.9479 46.7292 34.2812 48 34.2812 49.375C34.2812 50.9583 33.9792 52.3542 33.375 53.5625C32.7917 54.7708 31.9375 55.7812 30.8125 56.5938C29.6875 57.3854 28.3229 57.9896 26.7188 58.4062C25.1146 58.8021 23.3021 59 21.2812 59ZM78.6875 54.0938V59H44.25V54.0938H78.6875ZM45.2188 54.0938V70.1875H39.25L39.2188 54.0938H45.2188ZM83.9375 54.0938L83.875 70.1562H77.9062V54.0938H83.9375ZM72.7812 13.5V18.4375H52.8438V13.5H72.7812ZM77.9688 13.5V59H71.9688V13.5H77.9688ZM50.7812 13.5H56.8125L55.875 31.8125C55.75 34.5625 55.4896 37.1042 55.0938 39.4375C54.6979 41.75 54.2083 43.8646 53.625 45.7812C53.0417 47.6979 52.375 49.4167 51.625 50.9375C50.875 52.4375 50.0729 53.7396 49.2188 54.8438C48.3646 55.9271 47.4688 56.8229 46.5312 57.5312C45.6146 58.2188 44.6875 58.7083 43.75 59H41V54.0938H42.9375C43.4792 53.5104 44.0938 52.6667 44.7812 51.5625C45.4896 50.4583 46.1875 49.0312 46.875 47.2812C47.5833 45.5104 48.1979 43.3542 48.7188 40.8125C49.2604 38.2708 49.625 35.2708 49.8125 31.8125L50.7812 13.5ZM88.625 42.4688V41.75C88.625 39.3125 88.9792 37.0521 89.6875 34.9688C90.3958 32.8646 91.4167 31.0417 92.75 29.5C94.0833 27.9375 95.6979 26.7292 97.5938 25.875C99.4896 25 101.615 24.5625 103.969 24.5625C106.344 24.5625 108.479 25 110.375 25.875C112.292 26.7292 113.917 27.9375 115.25 29.5C116.604 31.0417 117.635 32.8646 118.344 34.9688C119.052 37.0521 119.406 39.3125 119.406 41.75V42.4688C119.406 44.9062 119.052 47.1667 118.344 49.25C117.635 51.3333 116.604 53.1562 115.25 54.7188C113.917 56.2604 112.302 57.4688 110.406 58.3438C108.531 59.1979 106.406 59.625 104.031 59.625C101.656 59.625 99.5208 59.1979 97.625 58.3438C95.7292 57.4688 94.1042 56.2604 92.75 54.7188C91.4167 53.1562 90.3958 51.3333 89.6875 49.25C88.9792 47.1667 88.625 44.9062 88.625 42.4688ZM94.4062 41.75V42.4688C94.4062 44.1562 94.6042 45.75 95 47.25C95.3958 48.7292 95.9896 50.0417 96.7812 51.1875C97.5938 52.3333 98.6042 53.2396 99.8125 53.9062C101.021 54.5521 102.427 54.875 104.031 54.875C105.615 54.875 107 54.5521 108.188 53.9062C109.396 53.2396 110.396 52.3333 111.188 51.1875C111.979 50.0417 112.573 48.7292 112.969 47.25C113.385 45.75 113.594 44.1562 113.594 42.4688V41.75C113.594 40.0833 113.385 38.5104 112.969 37.0312C112.573 35.5312 111.969 34.2083 111.156 33.0625C110.365 31.8958 109.365 30.9792 108.156 30.3125C106.969 29.6458 105.573 29.3125 103.969 29.3125C102.385 29.3125 100.99 29.6458 99.7812 30.3125C98.5938 30.9792 97.5938 31.8958 96.7812 33.0625C95.9896 34.2083 95.3958 35.5312 95 37.0312C94.6042 38.5104 94.4062 40.0833 94.4062 41.75ZM146.094 51.3125L157.594 25.1875H163.156L148.094 59H144.094L129.094 25.1875H134.656L146.094 51.3125ZM132.969 25.1875V59H127.188V25.1875H132.969ZM159.031 59V25.1875H164.844V59H159.031ZM180.438 25.1875V59H174.625V25.1875H180.438ZM174.188 16.2188C174.188 15.2812 174.469 14.4896 175.031 13.8438C175.615 13.1979 176.469 12.875 177.594 12.875C178.698 12.875 179.542 13.1979 180.125 13.8438C180.729 14.4896 181.031 15.2812 181.031 16.2188C181.031 17.1146 180.729 17.8854 180.125 18.5312C179.542 19.1562 178.698 19.4688 177.594 19.4688C176.469 19.4688 175.615 19.1562 175.031 18.5312C174.469 17.8854 174.188 17.1146 174.188 16.2188Z" fill="#0C0A00"/>
</svg>
