<svg width="19" height="18" viewBox="0 0 19 18" fill="none" xmlns="http://www.w3.org/2000/svg">
<path d="M17.0779 0.922385L17.0774 0.922392C18.3075 2.15267 18.3075 4.14726 17.0774 5.37753L4.60879 17.8467C4.51027 17.945 4.37675 18 4.23759 18H1.05008C0.470138 18 8.40428e-07 17.5298 8.40428e-07 16.9499V13.7628C-0.0002483 13.6234 0.0549037 13.4897 0.15331 13.391L12.6235 0.922385C13.8536 -0.307462 15.8477 -0.307462 17.0779 0.922385ZM18.2882 16.5C18.4294 16.5 18.5 16.5667 18.5 16.7V17.8C18.5 17.9333 18.4294 18 18.2882 18H9.71176C9.57059 18 9.5 17.9333 9.5 17.8V16.7C9.5 16.5667 9.57059 16.5 9.71176 16.5H18.2882ZM11.586 4.1855L1.63654 14.1361C1.59717 14.1755 1.57512 14.229 1.57512 14.2847V16.2159C1.57512 16.3319 1.6691 16.4259 1.78513 16.4259H3.71517C3.77096 16.4259 3.82442 16.4035 3.86375 16.3639L13.814 6.4135L11.586 4.1855ZM18.2778 13C18.4259 13 18.5 13.0667 18.5 13.2V14.3C18.5 14.4333 18.4259 14.5 18.2778 14.5H13.7222C13.5741 14.5 13.5 14.4333 13.5 14.3V13.2C13.5 13.0667 13.5741 13 13.7222 13H18.2778ZM13.8038 1.97252L13.7361 2.03552L12.6855 3.086L14.9135 5.314L15.9638 4.26442C16.5537 3.67465 16.5816 2.7272 16.0273 2.10379L15.9643 2.03658L15.9643 2.03552C15.3744 1.44572 14.427 1.4181 13.8038 1.97252Z" fill="black"/>
</svg>
