<svg width="16" height="16" viewBox="0 0 16 16" fill="none" xmlns="http://www.w3.org/2000/svg">
<rect x="0.5" y="0.5" width="15" height="15" rx="7.5" stroke="#A80E0E"/>
<path d="M8.64803 8.00447L12.8678 3.79901C13.0441 3.62106 13.0441 3.33278 12.8678 3.15482C12.6946 2.97369 12.4086 2.96825 12.2288 3.14267L8.00904 7.34813L3.84355 3.14267C3.75815 3.0516 3.63932 3 3.51501 3C3.3907 3 3.27188 3.0516 3.18648 3.14267C3.03017 3.3146 3.03017 3.57846 3.18648 3.75039L7.35197 7.94978L3.13222 12.1492C2.95593 12.3271 2.95593 12.6154 3.13222 12.7934C3.21615 12.88 3.33158 12.9283 3.45172 12.927C3.57417 12.9371 3.69556 12.8977 3.7893 12.8177L8.00904 8.6122L12.2288 12.8663C12.3127 12.9529 12.4281 13.0012 12.5483 13C12.6683 13.0005 12.7835 12.9524 12.8678 12.8663C13.0441 12.6883 13.0441 12.4 12.8678 12.2221L8.64803 8.00447Z" fill="#A80E0E"/>
</svg>
