<svg width="22" height="22" viewBox="0 0 22 22" fill="none" xmlns="http://www.w3.org/2000/svg">
<path d="M11 0C17.0751 0 22 4.92487 22 11C22 17.0751 17.0751 22 11 22C4.92487 22 0 17.0751 0 11C0 4.92487 4.92487 0 11 0ZM11 1.5C5.75329 1.5 1.5 5.75329 1.5 11C1.5 16.2467 5.75329 20.5 11 20.5C16.2467 20.5 20.5 16.2467 20.5 11C20.5 5.75329 16.2467 1.5 11 1.5ZM16.9699 7.84101L10.6716 14.1391C10.3787 14.432 9.90381 14.432 9.61091 14.1391L9.57243 14.0981C9.51776 14.0663 9.46626 14.0269 9.41942 13.9801L5.7807 10.341C5.7026 10.2629 5.7026 10.1363 5.78071 10.0582C5.81822 10.0207 5.86908 9.99958 5.92212 9.99958H7.47748C7.53052 9.99958 7.58139 10.0207 7.61889 10.0582L10.125 12.5641L15.1312 7.55816C15.1687 7.52065 15.2196 7.49958 15.2727 7.49958H16.8285C16.9389 7.49958 17.0285 7.58913 17.0285 7.69958C17.0285 7.75263 17.0074 7.8035 16.9699 7.84101Z" fill="#36DF32"/>
</svg>
